<?xml version="1.0" encoding="utf-8"?>
<!-- Generator: Adobe Illustrator 25.4.1, SVG Export Plug-In . SVG Version: 6.00 Build 0)  -->
<svg version="1.1" xmlns="http://www.w3.org/2000/svg" xmlns:xlink="http://www.w3.org/1999/xlink" x="0px" y="0px"
	 viewBox="0 0 1500 768" style="enable-background:new 0 0 1500 768;" xml:space="preserve">
<style type="text/css">
	.st0{fill:url(#SVGID_1_);}
	.st1{fill:none;}
	.st2{fill:#03045E;}
	.st3{font-family:'Calder-Dark';}
	.st4{font-size:24px;}
	.st5{font-size:35px;}
	.st6{fill:#90E0EF;}
	.st7{fill:#CAF0F8;}
	.st8{fill:none;stroke:#86D9F0;stroke-width:4;stroke-miterlimit:10;}
	.st9{fill:#ADE8F4;}
	.st10{fill:#48CAE4;}
	.st11{fill:#00B4D8;}
	.st12{fill:#0096C7;}
	.st13{fill:#0077B6;}
	.st14{fill:#023E8A;}
	.st15{display:none;}
	.st16{display:inline;}
</style>
<g id="Layer_2">
	<linearGradient id="SVGID_1_" gradientUnits="userSpaceOnUse" x1="291.1992" y1="353.8275" x2="1208.8008" y2="353.8275">
		<stop  offset="0" style="stop-color:#CAF0F8"/>
		<stop  offset="2.550573e-02" style="stop-color:#C3EEF7"/>
		<stop  offset="9.277652e-02" style="stop-color:#B6EBF5"/>
		<stop  offset="0.1827" style="stop-color:#AFE9F4"/>
		<stop  offset="0.3869" style="stop-color:#ADE8F4"/>
		<stop  offset="0.7835" style="stop-color:#90E0EF"/>
		<stop  offset="0.8875" style="stop-color:#8EDFEF"/>
		<stop  offset="0.925" style="stop-color:#87DDEE"/>
		<stop  offset="0.9517" style="stop-color:#7CDAEC"/>
		<stop  offset="0.9733" style="stop-color:#6BD5E9"/>
		<stop  offset="0.9915" style="stop-color:#55CEE6"/>
		<stop  offset="1" style="stop-color:#48CAE4"/>
	</linearGradient>
	<path class="st0" d="M1158.4,672H341.6c-27.8,0-50.4-22.6-50.4-50.4V86c0-27.8,22.6-50.4,50.4-50.4h816.9
		c27.8,0,50.4,22.6,50.4,50.4v535.6C1208.8,649.4,1186.3,672,1158.4,672z"/>
	<rect x="305" y="151.1" class="st1" width="190.9" height="22.3"/>
	<text transform="matrix(1 0 0 1 363.1696 170.6711)" class="st2 st3 st4">HTML</text>
	<rect x="627" y="60.3" class="st1" width="246" height="54.6"/>
	<text transform="matrix(1 0 0 1 645.2113 99.9193)" class="st2 st3 st5">My Skills</text>
	<rect x="305" y="213.7" class="st1" width="190.9" height="22.3"/>
	<text transform="matrix(1 0 0 1 372.7458 233.2532)" class="st2 st3 st4">Css</text>
	<rect x="305" y="276.3" class="st1" width="190.9" height="22.3"/>
	<text transform="matrix(1 0 0 1 363.842 295.8352)" class="st2 st3 st4">Sass</text>
	<rect x="305" y="338.9" class="st1" width="190.9" height="22.3"/>
	<text transform="matrix(1 0 0 1 315.4704 358.4172)" class="st2 st3 st4">JavaScript</text>
	<rect x="305" y="401.4" class="st1" width="190.9" height="22.3"/>
	<text transform="matrix(1 0 0 1 340.7424 420.9992)" class="st2 st3 st4">Shopify</text>
	<rect x="305" y="464" class="st1" width="190.9" height="22.3"/>
	<text transform="matrix(1 0 0 1 314.8224 483.5812)" class="st2 st3 st4">Photoshop</text>
	<rect x="305" y="526.6" class="st1" width="190.9" height="22.3"/>
	<text transform="matrix(1 0 0 1 307.527 546.1632)" class="st2 st3 st4">Illustrator</text>
	<rect x="305" y="589.2" class="st1" width="190.9" height="22.3"/>
	<text transform="matrix(1 0 0 1 340.6345 608.7452)" class="st2 st3 st4">Node.Js</text>
</g>
<g id="Bars">
	<g id="bars-group">
		<g id="inside">
			<path class="st6" d="M1154.8,146.2c8.8,0,16,7.2,16,16c0,4.4-1.8,8.4-4.7,11.3c-2.9,2.9-6.9,4.7-11.3,4.7h-41.5
				c4.1,0,7.9-1.8,10.6-4.7c2.7-2.9,4.4-6.9,4.4-11.3c0-8.8-6.7-16-15-16H1154.8z"/>
			<path class="st6" d="M1154.8,208.8c8.8,0,16,7.2,16,16c0,4.4-1.8,8.4-4.7,11.3c-2.9,2.9-6.9,4.7-11.3,4.7h-83.7
				c3.8,0,7.3-1.8,9.8-4.7c2.5-2.9,4.1-6.9,4.1-11.3c0-8.8-6.2-16-13.9-16H1154.8z"/>
			<path class="st6" d="M1154.8,271.4c8.8,0,16,7.2,16,16c0,4.4-1.8,8.4-4.7,11.3c-2.9,2.9-6.9,4.7-11.3,4.7h-134.8
				c3.5,0,6.7-1.8,9-4.7c2.3-2.9,3.7-6.9,3.7-11.3c0-8.8-5.7-16-12.7-16H1154.8z"/>
			<path class="st6" d="M1154.8,334c8.8,0,16,7.2,16,16c0,4.4-1.8,8.4-4.7,11.3c-2.9,2.9-6.9,4.7-11.3,4.7H916.6
				c2.8,0,5.3-1.8,7.1-4.7c1.8-2.9,3-6.9,3-11.3c0-8.8-4.5-16-10.1-16H1154.8z"/>
			<path class="st6" d="M1154.8,396.6c8.8,0,16,7.2,16,16c0,4.4-1.8,8.4-4.7,11.3c-2.9,2.9-6.9,4.7-11.3,4.7H988.1
				c3.3,0,6.2-1.8,8.4-4.7c2.1-2.9,3.5-6.9,3.5-11.3c0-8.8-5.3-16-11.9-16H1154.8z"/>
			<path class="st6" d="M1154.8,459.1c8.8,0,16,7.2,16,16c0,4.4-1.8,8.4-4.7,11.3c-2.9,2.9-6.9,4.7-11.3,4.7h-69.1
				c4,0,7.5-1.8,10.1-4.7c2.6-2.9,4.2-6.9,4.2-11.3c0-8.8-6.4-16-14.3-16H1154.8z"/>
			<path class="st6" d="M1154.8,521.7c8.8,0,16,7.2,16,16c0,4.4-1.8,8.4-4.7,11.3c-2.9,2.9-6.9,4.7-11.3,4.7h-134.8
				c3.5,0,6.7-1.8,9-4.7c2.3-2.9,3.7-6.9,3.7-11.3c0-8.8-5.7-16-12.7-16H1154.8z"/>
			<path class="st6" d="M1154.8,584.3c8.8,0,16,7.2,16,16c0,4.4-1.8,8.4-4.7,11.3c-2.9,2.9-6.9,4.7-11.3,4.7H916.6
				c2.8,0,5.3-1.8,7.1-4.7c1.8-2.9,3-6.9,3-11.3c0-8.8-4.5-16-10.1-16H1154.8z"/>
			<path class="st7" d="M1113.3,146.2c8.3,0,15,7.2,15,16c0,4.4-1.7,8.4-4.4,11.3c-2.7,2.9-6.5,4.7-10.6,4.7H524.4
				c-8.3,0-15.1-6.3-15.9-14.4c0-0.5-0.1-1.1-0.1-1.6c0-0.6,0-1.1,0.1-1.6c0.4-3.8,2.1-7.1,4.6-9.7c2.9-2.9,6.9-4.7,11.3-4.7H1113.3
				z"/>
			<path class="st7" d="M1085.7,459.1c7.9,0,14.3,7.2,14.3,16c0,4.4-1.6,8.4-4.2,11.3c-2.6,2.9-6.2,4.7-10.1,4.7H524.4
				c-8.6,0-15.5-6.7-16-15.2c0-0.3,0-0.5,0-0.8s0-0.5,0-0.8c0.2-4.1,2-7.8,4.7-10.5c2.9-2.9,6.9-4.7,11.3-4.7H1085.7z"/>
			<path class="st7" d="M1071.2,208.8c7.7,0,13.9,7.2,13.9,16c0,4.4-1.6,8.4-4.1,11.3c-2.5,2.9-6,4.7-9.8,4.7H524.4
				c-8.6,0-15.5-6.7-16-15.2c0-0.3,0-0.5,0-0.8c0-0.3,0-0.6,0-0.8c0.2-4.1,2-7.8,4.7-10.5c2.9-2.9,6.9-4.7,11.3-4.7H1071.2z"/>
			<path class="st7" d="M1020.1,271.4c7,0,12.7,7.2,12.7,16c0,4.4-1.4,8.4-3.7,11.3c-2.3,2.9-5.5,4.7-9,4.7H524.4
				c-8.6,0-15.5-6.7-16-15.2c0-0.3,0-0.5,0-0.8s0-0.5,0-0.8c0.2-4.1,2-7.8,4.7-10.5c2.9-2.9,6.9-4.7,11.3-4.7H1020.1z"/>
			<path class="st7" d="M1020.1,521.7c7,0,12.7,7.2,12.7,16c0,4.4-1.4,8.4-3.7,11.3c-2.3,2.9-5.5,4.7-9,4.7H524.4
				c-8.6,0-15.5-6.7-16-15.2c0-0.3,0-0.5,0-0.8c0-0.3,0-0.5,0-0.8c0.2-4.1,2-7.8,4.7-10.5c2.9-2.9,6.9-4.7,11.3-4.7H1020.1z"/>
			<path class="st7" d="M988.1,396.6c6.5,0,11.9,7.2,11.9,16c0,4.4-1.3,8.4-3.5,11.3c-2.2,2.9-5.1,4.7-8.4,4.7H524.4
				c-8.6,0-15.5-6.7-16-15.2c0-0.3,0-0.5,0-0.8s0-0.5,0-0.8c0.2-4.1,2-7.8,4.7-10.5c2.9-2.9,6.9-4.7,11.3-4.7H988.1z"/>
			<path class="st7" d="M916.6,334c5.6,0,10.1,7.2,10.1,16c0,4.4-1.1,8.4-3,11.3c-1.8,2.9-4.3,4.7-7.1,4.7H524.4
				c-8.8,0-16-7.2-16-16c0-4.4,1.8-8.4,4.7-11.3c2.9-2.9,6.9-4.7,11.3-4.7H916.6z"/>
			<path class="st7" d="M916.6,584.3c5.6,0,10.1,7.2,10.1,16c0,4.4-1.1,8.4-3,11.3c-1.8,2.9-4.3,4.7-7.1,4.7H524.4
				c-8.8,0-16-7.2-16-16c0-4.4,1.8-8.4,4.7-11.3c2.9-2.9,6.9-4.7,11.3-4.7H916.6z"/>
			<path class="st7" d="M523.4,146.2h1c-4.4,0-8.4,1.8-11.3,4.7c-2.5,2.5-4.2,5.9-4.6,9.7c0.4-3.8,1.9-7.1,4.3-9.7
				C515.5,148,519.3,146.2,523.4,146.2z"/>
			<path class="st7" d="M524.4,178.2h-1c-7.8,0-14.1-6.3-14.9-14.4C509.3,171.9,516.2,178.2,524.4,178.2z"/>
			<path class="st7" d="M522.4,208.8h2.1c-4.4,0-8.4,1.8-11.3,4.7c-2.7,2.7-4.4,6.4-4.7,10.5c0.2-4.1,1.7-7.8,4.1-10.5
				C515,210.6,518.5,208.8,522.4,208.8z"/>
			<path class="st7" d="M524.4,240.8h-2.1c-7.5,0-13.5-6.7-13.9-15.2C508.9,234.1,515.9,240.8,524.4,240.8z"/>
			<path class="st7" d="M521.1,271.4h3.3c-4.4,0-8.4,1.8-11.3,4.7c-2.7,2.7-4.4,6.4-4.7,10.5c0.2-4.1,1.5-7.8,3.7-10.5
				C514.4,273.2,517.6,271.4,521.1,271.4z"/>
			<path class="st7" d="M524.4,303.4h-3.3c-6.8,0-12.3-6.7-12.6-15.2C508.9,296.7,515.9,303.4,524.4,303.4z"/>
			<path class="st7" d="M518.5,334h5.9c-4.4,0-8.4,1.8-11.3,4.7c-2.9,2.9-4.7,6.9-4.7,11.3c0-4.4,1.1-8.4,3-11.3
				C513.2,335.8,515.8,334,518.5,334z"/>
			<path class="st7" d="M524.4,366h-5.9c-5.6,0-10.1-7.2-10.1-16C508.4,358.8,515.6,366,524.4,366z"/>
			<path class="st7" d="M520.3,396.6h4.1c-4.4,0-8.4,1.8-11.3,4.7c-2.7,2.7-4.4,6.4-4.7,10.5c0.1-4.1,1.4-7.8,3.5-10.5
				C514.1,398.4,517,396.6,520.3,396.6z"/>
			<path class="st7" d="M524.4,428.6h-4.1c-6.3,0-11.5-6.7-11.9-15.2C508.9,421.8,515.9,428.6,524.4,428.6z"/>
			<path class="st7" d="M522.7,459.1h1.7c-4.4,0-8.4,1.8-11.3,4.7c-2.7,2.7-4.4,6.4-4.7,10.5c0.2-4.1,1.7-7.8,4.2-10.5
				C515.2,460.9,518.8,459.1,522.7,459.1z"/>
			<path class="st7" d="M524.4,491.1h-1.7c-7.6,0-13.9-6.7-14.3-15.2C508.9,484.4,515.9,491.1,524.4,491.1z"/>
			<path class="st7" d="M521.1,521.7h3.3c-4.4,0-8.4,1.8-11.3,4.7c-2.7,2.7-4.4,6.4-4.7,10.5c0.2-4.1,1.5-7.8,3.7-10.5
				C514.4,523.5,517.6,521.7,521.1,521.7z"/>
			<path class="st7" d="M524.4,553.7h-3.3c-6.8,0-12.3-6.7-12.6-15.2C508.9,547,515.9,553.7,524.4,553.7z"/>
			<path class="st7" d="M518.5,584.3h5.9c-4.4,0-8.4,1.8-11.3,4.7c-2.9,2.9-4.7,6.9-4.7,11.3c0-4.4,1.1-8.4,3-11.3
				C513.2,586.1,515.8,584.3,518.5,584.3z"/>
			<path class="st7" d="M524.4,616.3h-5.9c-5.6,0-10.1-7.2-10.1-16C508.4,609.2,515.6,616.3,524.4,616.3z"/>
		</g>
		<g id="outside">
			<path class="st8" d="M1113.3,146.2h41.5c8.8,0,16,7.2,16,16c0,4.4-1.8,8.4-4.7,11.3c-2.9,2.9-6.9,4.7-11.3,4.7h-41.5H524.4
				c-8.3,0-15.1-6.3-15.9-14.4c0-0.5-0.1-1.1-0.1-1.6c0-0.6,0-1.1,0.1-1.6c0.4-3.8,2.1-7.1,4.6-9.7c2.9-2.9,6.9-4.7,11.3-4.7H1113.3
				z"/>
			<path class="st8" d="M916.6,334h238.2c8.8,0,16,7.2,16,16c0,4.4-1.8,8.4-4.7,11.3c-2.9,2.9-6.9,4.7-11.3,4.7H916.6H524.4
				c-8.8,0-16-7.2-16-16c0-4.4,1.8-8.4,4.7-11.3c2.9-2.9,6.9-4.7,11.3-4.7H916.6z"/>
			<path class="st8" d="M1020.1,271.4h134.8c8.8,0,16,7.2,16,16c0,4.4-1.8,8.4-4.7,11.3c-2.9,2.9-6.9,4.7-11.3,4.7h-134.8H524.4
				c-8.6,0-15.5-6.7-16-15.2c0-0.3,0-0.5,0-0.8s0-0.5,0-0.8c0.2-4.1,2-7.8,4.7-10.5c2.9-2.9,6.9-4.7,11.3-4.7H1020.1z"/>
			<path class="st8" d="M1071.2,208.8h83.7c8.8,0,16,7.2,16,16c0,4.4-1.8,8.4-4.7,11.3c-2.9,2.9-6.9,4.7-11.3,4.7h-83.7H524.4
				c-8.6,0-15.5-6.7-16-15.2c0-0.3,0-0.5,0-0.8c0-0.3,0-0.6,0-0.8c0.2-4.1,2-7.8,4.7-10.5c2.9-2.9,6.9-4.7,11.3-4.7H1071.2z"/>
			<path class="st8" d="M988.1,396.6h166.7c8.8,0,16,7.2,16,16c0,4.4-1.8,8.4-4.7,11.3c-2.9,2.9-6.9,4.7-11.3,4.7H988.1H524.4
				c-8.6,0-15.5-6.7-16-15.2c0-0.3,0-0.5,0-0.8s0-0.5,0-0.8c0.2-4.1,2-7.8,4.7-10.5c2.9-2.9,6.9-4.7,11.3-4.7H988.1z"/>
			<path class="st8" d="M1020.1,521.7h134.8c8.8,0,16,7.2,16,16c0,4.4-1.8,8.4-4.7,11.3c-2.9,2.9-6.9,4.7-11.3,4.7h-134.8H524.4
				c-8.6,0-15.5-6.7-16-15.2c0-0.3,0-0.5,0-0.8c0-0.3,0-0.5,0-0.8c0.2-4.1,2-7.8,4.7-10.5c2.9-2.9,6.9-4.7,11.3-4.7H1020.1z"/>
			<path class="st8" d="M1085.7,459.1h69.1c8.8,0,16,7.2,16,16c0,4.4-1.8,8.4-4.7,11.3c-2.9,2.9-6.9,4.7-11.3,4.7h-69.1H524.4
				c-8.6,0-15.5-6.7-16-15.2c0-0.3,0-0.5,0-0.8s0-0.5,0-0.8c0.2-4.1,2-7.8,4.7-10.5c2.9-2.9,6.9-4.7,11.3-4.7H1085.7z"/>
			<path class="st8" d="M916.6,584.3h238.2c8.8,0,16,7.2,16,16c0,4.4-1.8,8.4-4.7,11.3c-2.9,2.9-6.9,4.7-11.3,4.7H916.6H524.4
				c-8.8,0-16-7.2-16-16c0-4.4,1.8-8.4,4.7-11.3c2.9-2.9,6.9-4.7,11.3-4.7H916.6z"/>
		</g>
	</g>
</g>
<g id="Swatch">
	<rect x="904.4" y="-118.7" class="st7" width="68.1" height="68.1"/>
	<rect x="1000.2" y="-118.7" class="st9" width="68.1" height="68.1"/>
	<rect x="1096.1" y="-118.7" class="st6" width="68.1" height="68.1"/>
	<rect x="1191.9" y="-118.7" class="st10" width="68.1" height="68.1"/>
	<rect x="1287.7" y="-118.7" class="st11" width="68.1" height="68.1"/>
	<rect x="1383.5" y="-118.7" class="st12" width="68.1" height="68.1"/>
	<rect x="1479.3" y="-118.7" class="st13" width="68.1" height="68.1"/>
	<rect x="1575.1" y="-118.7" class="st14" width="68.1" height="68.1"/>
	<rect x="1670.9" y="-118.7" class="st6" width="68.1" height="68.1"/>
</g>
<g id="Guides" class="st15">
	<g class="st16">
	</g>
	<g class="st16">
	</g>
</g>
<g id="Layer_3">
</g>
</svg>
