<svg xmlns="http://www.w3.org/2000/svg" xmlns:xlink="http://www.w3.org/1999/xlink" viewBox="0 0 917.6015 636.3449"><defs><linearGradient id="linear-gradient" y1="318.1725" x2="917.6015" y2="318.1725" gradientUnits="userSpaceOnUse"><stop offset="0" stop-color="#caf0f8"/><stop offset="0.0255" stop-color="#c3eef7"/><stop offset="0.0928" stop-color="#b6ebf5"/><stop offset="0.1827" stop-color="#afe9f4"/><stop offset="0.3869" stop-color="#ade8f4"/><stop offset="0.7835" stop-color="#90e0ef"/><stop offset="0.8875" stop-color="#8edfef"/><stop offset="0.925" stop-color="#87ddee"/><stop offset="0.9517" stop-color="#7cdaec"/><stop offset="0.9733" stop-color="#6bd5e9"/><stop offset="0.9915" stop-color="#55cee6"/><stop offset="1" stop-color="#48cae4"/></linearGradient></defs><g id="Layer_2" data-name="Layer 2"><g id="card"><rect width="917.6015" height="636.3449" rx="50.3672" style="fill:url(#linear-gradient)"/><g id="Text"><text transform="translate(71.9704 135.0161)" style="font-size:24px;fill:#03045e;font-family:Calder-Dark, Calder">HTML</text><text transform="translate(354.012 64.2643)" style="font-size:35px;fill:#03045e;font-family:Calder-Dark, Calder">My Skills</text><text transform="translate(81.5466 197.5981)" style="font-size:24px;fill:#03045e;font-family:Calder-Dark, Calder">Css</text><text transform="translate(72.6427 260.1801)" style="font-size:24px;fill:#03045e;font-family:Calder-Dark, Calder">Sass</text><text transform="translate(24.2712 322.7621)" style="font-size:24px;fill:#03045e;font-family:Calder-Dark, Calder">JavaScript</text><text transform="translate(49.5431 385.3441)" style="font-size:24px;fill:#03045e;font-family:Calder-Dark, Calder">Shopify</text><text transform="translate(23.6232 447.9262)" style="font-size:24px;fill:#03045e;font-family:Calder-Dark, Calder">Photoshop</text><text transform="translate(16.3278 510.5082)" style="font-size:24px;fill:#03045e;font-family:Calder-Dark, Calder">Illustrator</text><text transform="translate(49.4352 573.0902)" style="font-size:24px;fill:#03045e;font-family:Calder-Dark, Calder">Node.Js</text></g></g><g id="Inside"><g id="inside-2" data-name="inside"><path d="M863.6408,110.5849a16,16,0,0,1,0,32h-41.52a14.4456,14.4456,0,0,0,10.59-4.69,16.4879,16.4879,0,0,0,4.38-11.31c0-8.84-6.7-16-14.97-16Z" style="fill:#90e0ef"/><path d="M863.6408,173.1649a16,16,0,0,1,0,32h-83.68a13.0342,13.0342,0,0,0,9.85-4.69,17.1969,17.1969,0,0,0,4.08-11.31c0-8.84-6.23-16-13.93-16Z" style="fill:#90e0ef"/><path d="M863.6408,235.7449a16,16,0,1,1,0,32h-134.78a11.4923,11.4923,0,0,0,8.96-4.68,18.3143,18.3143,0,0,0,3.71-11.32c0-8.84-5.67-16-12.67-16Z" style="fill:#90e0ef"/><path d="M863.6408,298.3249a16,16,0,1,1,0,32h-238.25c2.79,0,5.31-1.79,7.14-4.68a21.4952,21.4952,0,0,0,2.96-11.32c0-8.84-4.52-16-10.1-16Z" style="fill:#90e0ef"/><path d="M863.6408,360.9049a16,16,0,1,1,0,32h-166.71a10.5882,10.5882,0,0,0,8.39-4.68,19.1085,19.1085,0,0,0,3.48-11.32c0-8.83-5.32-16-11.87-16Z" style="fill:#90e0ef"/><path d="M863.6408,423.4949a16,16,0,0,1,0,32h-69.13a13.4894,13.4894,0,0,0,10.1-4.69,16.9573,16.9573,0,0,0,4.19-11.31c0-8.84-6.4-16-14.29-16Z" style="fill:#90e0ef"/><path d="M863.6408,486.0749a16,16,0,0,1,0,32h-134.78a11.4736,11.4736,0,0,0,8.96-4.69,18.3059,18.3059,0,0,0,3.71-11.31c0-8.84-5.67-16-12.67-16Z" style="fill:#90e0ef"/><path d="M863.6408,548.6549a16,16,0,0,1,0,32h-238.25c2.79,0,5.31-1.79,7.14-4.69a21.4324,21.4324,0,0,0,2.96-11.31c0-8.84-4.52-16-10.1-16Z" style="fill:#90e0ef"/><path d="M822.1208,110.5849c8.27,0,14.97,7.16,14.97,16a16.4879,16.4879,0,0,1-4.38,11.31,14.4456,14.4456,0,0,1-10.59,4.69h-588.88a16.0038,16.0038,0,0,1-15.92-14.36c-.05-.54-.08-1.09-.08-1.64s.03-1.1.08-1.64a15.983,15.983,0,0,1,15.92-14.36Z" style="fill:#caf0f8"/><path d="M794.5108,423.4949c7.89,0,14.29,7.16,14.29,16a16.9573,16.9573,0,0,1-4.19,11.31,13.4894,13.4894,0,0,1-10.1,4.69h-561.27a16.0083,16.0083,0,0,1-15.98-15.18c-.01-.27-.02-.54-.02-.82s.01-.55.02-.82a15.9971,15.9971,0,0,1,15.98-15.18Z" style="fill:#caf0f8"/><path d="M779.9608,173.1649c7.7,0,13.93,7.16,13.93,16a17.1969,17.1969,0,0,1-4.08,11.31,13.0342,13.0342,0,0,1-9.85,4.69h-546.72a16.0083,16.0083,0,0,1-15.98-15.18c-.01-.27-.02-.54-.02-.82s.01-.55.02-.82a15.9785,15.9785,0,0,1,15.98-15.18Z" style="fill:#caf0f8"/><path d="M728.8608,235.7449c7,0,12.67,7.16,12.67,16a18.3143,18.3143,0,0,1-3.71,11.32,11.4923,11.4923,0,0,1-8.96,4.68h-495.62a16.0012,16.0012,0,0,1-15.98-15.18c-.01-.27-.02-.54-.02-.82s.01-.55.02-.82a15.9785,15.9785,0,0,1,15.98-15.18Z" style="fill:#caf0f8"/><path d="M728.8608,486.0749c7,0,12.67,7.16,12.67,16a18.3059,18.3059,0,0,1-3.71,11.31,11.4736,11.4736,0,0,1-8.96,4.69h-495.62a16.0083,16.0083,0,0,1-15.98-15.18c-.01-.27-.02-.54-.02-.82s.01-.55.02-.82a15.9971,15.9971,0,0,1,15.98-15.18Z" style="fill:#caf0f8"/><path d="M696.9308,360.9049c6.55,0,11.87,7.17,11.87,16a19.1085,19.1085,0,0,1-3.48,11.32,10.5882,10.5882,0,0,1-8.39,4.68h-463.69a16.0012,16.0012,0,0,1-15.98-15.18c-.01-.27-.02-.54-.02-.82s.01-.55.02-.82a15.9971,15.9971,0,0,1,15.98-15.18Z" style="fill:#caf0f8"/><path d="M625.3908,298.3249c5.58,0,10.1,7.16,10.1,16a21.4952,21.4952,0,0,1-2.96,11.32c-1.83,2.89-4.35,4.68-7.14,4.68h-392.15a16,16,0,1,1,0-32Z" style="fill:#caf0f8"/><path d="M625.3908,548.6549c5.58,0,10.1,7.16,10.1,16a21.4324,21.4324,0,0,1-2.96,11.31c-1.83,2.9-4.35,4.69-7.14,4.69h-392.15a16,16,0,1,1,0-32Z" style="fill:#caf0f8"/><path d="M232.2108,110.5849h1.03a15.983,15.983,0,0,0-15.92,14.36,16.527,16.527,0,0,1,4.3-9.68A14.4906,14.4906,0,0,1,232.2108,110.5849Z" style="fill:#caf0f8"/><path d="M233.2408,142.5849h-1.03c-7.75,0-14.13-6.3-14.89-14.36A16.0038,16.0038,0,0,0,233.2408,142.5849Z" style="fill:#caf0f8"/><path d="M231.1708,173.1649h2.07a15.9785,15.9785,0,0,0-15.98,15.18,17.148,17.148,0,0,1,4.06-10.5A13.0579,13.0579,0,0,1,231.1708,173.1649Z" style="fill:#caf0f8"/><path d="M233.2408,205.1649h-2.07c-7.45,0-13.54-6.73-13.91-15.18A16.0083,16.0083,0,0,0,233.2408,205.1649Z" style="fill:#caf0f8"/><path d="M229.9008,235.7449h3.34a15.9785,15.9785,0,0,0-15.98,15.18,18.089,18.089,0,0,1,3.69-10.5A11.4735,11.4735,0,0,1,229.9008,235.7449Z" style="fill:#caf0f8"/><path d="M233.2408,267.7449h-3.34c-6.77,0-12.3-6.72-12.64-15.18A16.0012,16.0012,0,0,0,233.2408,267.7449Z" style="fill:#caf0f8"/><path d="M227.3408,298.3249h5.9a15.9786,15.9786,0,0,0-16,16,21.4952,21.4952,0,0,1,2.96-11.32C222.0208,300.1149,224.5508,298.3249,227.3408,298.3249Z" style="fill:#caf0f8"/><path d="M233.2408,330.3249h-5.9c-5.58,0-10.1-7.16-10.1-16A15.9956,15.9956,0,0,0,233.2408,330.3249Z" style="fill:#caf0f8"/><path d="M229.1108,360.9049h4.13a15.9971,15.9971,0,0,0-15.98,15.18,18.7631,18.7631,0,0,1,3.46-10.49A10.5435,10.5435,0,0,1,229.1108,360.9049Z" style="fill:#caf0f8"/><path d="M233.2408,392.9049h-4.13c-6.35,0-11.54-6.72-11.85-15.18A16.0012,16.0012,0,0,0,233.2408,392.9049Z" style="fill:#caf0f8"/><path d="M231.5308,423.4949h1.71a15.9971,15.9971,0,0,0-15.98,15.18,16.7838,16.7838,0,0,1,4.17-10.49A13.4894,13.4894,0,0,1,231.5308,423.4949Z" style="fill:#caf0f8"/><path d="M233.2408,455.4949h-1.71c-7.64,0-13.89-6.73-14.27-15.18A16.0083,16.0083,0,0,0,233.2408,455.4949Z" style="fill:#caf0f8"/><path d="M229.9008,486.0749h3.34a15.9971,15.9971,0,0,0-15.98,15.18,18.0324,18.0324,0,0,1,3.69-10.49A11.4549,11.4549,0,0,1,229.9008,486.0749Z" style="fill:#caf0f8"/><path d="M233.2408,518.0749h-3.34c-6.77,0-12.3-6.73-12.64-15.18A16.0083,16.0083,0,0,0,233.2408,518.0749Z" style="fill:#caf0f8"/><path d="M227.3408,548.6549h5.9a15.9956,15.9956,0,0,0-16,16,21.4324,21.4324,0,0,1,2.96-11.31C222.0208,550.4449,224.5508,548.6549,227.3408,548.6549Z" style="fill:#caf0f8"/><path d="M233.2408,580.6549h-5.9c-5.58,0-10.1-7.16-10.1-16A15.9956,15.9956,0,0,0,233.2408,580.6549Z" style="fill:#caf0f8"/></g></g><g id="Outside"><g id="outside-2" data-name="outside"><path d="M822.1208,110.5849h41.52a16,16,0,0,1,0,32h-630.4a16.0038,16.0038,0,0,1-15.92-14.36c-.05-.54-.08-1.09-.08-1.64s.03-1.1.08-1.64a15.983,15.983,0,0,1,15.92-14.36Z" style="fill:none;stroke:#86d9f0;stroke-miterlimit:10;stroke-width:4px"/><path d="M625.3908,298.3249h238.25a16,16,0,1,1,0,32h-630.4a16,16,0,1,1,0-32Z" style="fill:none;stroke:#86d9f0;stroke-miterlimit:10;stroke-width:4px"/><path d="M728.8608,235.7449h134.78a16,16,0,1,1,0,32h-630.4a16.0012,16.0012,0,0,1-15.98-15.18c-.01-.27-.02-.54-.02-.82s.01-.55.02-.82a15.9785,15.9785,0,0,1,15.98-15.18Z" style="fill:none;stroke:#86d9f0;stroke-miterlimit:10;stroke-width:4px"/><path d="M779.9608,173.1649h83.68a16,16,0,0,1,0,32h-630.4a16.0083,16.0083,0,0,1-15.98-15.18c-.01-.27-.02-.54-.02-.82s.01-.55.02-.82a15.9785,15.9785,0,0,1,15.98-15.18Z" style="fill:none;stroke:#86d9f0;stroke-miterlimit:10;stroke-width:4px"/><path d="M696.9308,360.9049h166.71a16,16,0,1,1,0,32h-630.4a16.0012,16.0012,0,0,1-15.98-15.18c-.01-.27-.02-.54-.02-.82s.01-.55.02-.82a15.9971,15.9971,0,0,1,15.98-15.18Z" style="fill:none;stroke:#86d9f0;stroke-miterlimit:10;stroke-width:4px"/><path d="M728.8608,486.0749h134.78a16,16,0,0,1,0,32h-630.4a16.0083,16.0083,0,0,1-15.98-15.18c-.01-.27-.02-.54-.02-.82s.01-.55.02-.82a15.9971,15.9971,0,0,1,15.98-15.18Z" style="fill:none;stroke:#86d9f0;stroke-miterlimit:10;stroke-width:4px"/><path d="M794.5108,423.4949h69.13a16,16,0,0,1,0,32h-630.4a16.0083,16.0083,0,0,1-15.98-15.18c-.01-.27-.02-.54-.02-.82s.01-.55.02-.82a15.9971,15.9971,0,0,1,15.98-15.18Z" style="fill:none;stroke:#86d9f0;stroke-miterlimit:10;stroke-width:4px"/><path d="M625.3908,548.6549h238.25a16,16,0,0,1,0,32h-630.4a16,16,0,1,1,0-32Z" style="fill:none;stroke:#86d9f0;stroke-miterlimit:10;stroke-width:4px"/></g></g></g></svg>