<svg width="49" height="48" viewBox="0 0 49 48" fill="none" xmlns="http://www.w3.org/2000/svg">
<g clip-path="url(#clip0_4_1263)">
<path d="M15.5039 0H20.6599V2.156H17.6599V4.312H20.6599V6.468H15.5039V0ZM21.6899 0H26.8479V1.876H23.8479V2.25H26.8479V6.562H21.6899V4.594H24.6899V4.218H21.6899V0ZM27.8799 0H33.0339V1.876H30.0339V2.25H33.0339V6.562H27.8799V4.594H30.8799V4.218H27.8799V0Z" fill="#F1F5FD"/>
<path fill-rule="evenodd" clip-rule="evenodd" d="M24.482 48L10.594 44.144L6.5 9.434H42.5L38.408 44.14L24.482 48ZM14.594 25.146L14.976 29.402H29.73L29.236 34.922L24.488 36.206H24.484L19.744 34.926L19.44 31.532H15.166L15.762 38.216L24.482 40.636L33.216 38.216L34.28 26.288L34.384 25.146L35.152 16.528H13.828L14.216 20.786H30.488L30.1 25.146H14.594V25.146Z" fill="#F1F5FD"/>
</g>
<defs>
<clipPath id="clip0_4_1263">
<rect width="48" height="48" fill="white" transform="translate(0.5)"/>
</clipPath>
</defs>
</svg>
