<svg width="49" height="48" viewBox="0 0 49 48" fill="none" xmlns="http://www.w3.org/2000/svg">
<path d="M27.9802 8.46C26.3002 6.46 24.8402 4.46 24.5602 4.02H24.5002C24.2202 4.44 22.7602 6.46 21.0802 8.46C6.6802 26.84 23.3602 39.24 23.3602 39.24L23.5002 39.34C23.6202 41.24 23.9402 44 23.9402 44H25.1802C25.1802 44 25.4802 41.26 25.6002 39.34L25.7402 39.22C25.7402 39.22 42.3802 26.84 27.9802 8.46V8.46ZM24.5002 38.96C24.1497 38.672 23.8282 38.3505 23.5402 38L24.5002 18L25.4002 38C25.1304 38.347 24.8291 38.6684 24.5002 38.96V38.96Z" fill="#F1F5FD"/>
</svg>
