<svg width="49" height="48" viewBox="0 0 49 48" fill="none" xmlns="http://www.w3.org/2000/svg">
<g clip-path="url(#clip0_4_1334)">
<path fill-rule="evenodd" clip-rule="evenodd" d="M17.0583 10.1258H22.0584L29.2483 34.214H24.9053L23.1169 27.3525H16.1095L14.2845 34.2141H10.4523L17.0584 11.2572V10.1258H17.0583ZM22.1314 23.8123L19.6496 13.6294L17.0948 23.8121H22.1314V23.8123ZM36.6939 16.3123H32.7521V34.2141H36.6939V16.3125V16.3123ZM34.6721 9.35728C33.3952 9.35728 32.36 10.3806 32.36 11.6429C32.36 12.9053 33.3952 13.9286 34.6721 13.9286C35.9491 13.9286 36.9844 12.9053 36.9844 11.643C36.9844 10.3807 35.9492 9.35728 34.6721 9.35728ZM48.9287 48H0.928711V0H48.9287V48Z" fill="#F1F5FD"/>
</g>
<defs>
<clipPath id="clip0_4_1334">
<rect width="48" height="48" fill="white" transform="translate(0.928711)"/>
</clipPath>
</defs>
</svg>
