<svg width="49" height="48" viewBox="0 0 49 48" fill="none" xmlns="http://www.w3.org/2000/svg">
<g clip-path="url(#clip0_4_1353)">
<path d="M41.7898 -1.91057e-06H7.35426C6.7861 -0.00278222 6.22302 0.107049 5.69756 0.323146C5.17209 0.539243 4.69465 0.857322 4.29283 1.25901C3.89101 1.66069 3.57276 2.13802 3.35648 2.66341C3.1402 3.1888 3.03018 3.75184 3.03276 4.32V43.68C3.03018 44.2482 3.1402 44.8112 3.35648 45.3366C3.57276 45.862 3.89101 46.3393 4.29283 46.741C4.69465 47.1427 5.17209 47.4608 5.69756 47.6769C6.22302 47.8929 6.7861 48.0028 7.35426 48H41.7898C42.3578 48.0022 42.9206 47.8919 43.4458 47.6756C43.971 47.4593 44.4482 47.1412 44.8499 46.7397C45.2516 46.3381 45.5698 45.861 45.7863 45.3359C46.0028 44.8108 46.1132 44.248 46.1113 43.68V4.32C46.1138 3.75184 46.0038 3.1888 45.7875 2.66341C45.5713 2.13802 45.253 1.66069 44.8512 1.25901C44.4494 0.857322 43.9719 0.539243 43.4465 0.323146C42.921 0.107049 42.3579 -0.00278222 41.7898 -1.91057e-06V-1.91057e-06ZM43.7113 43.68C43.7113 44.7585 42.8668 45.6015 41.7898 45.6015H7.35426C7.10114 45.6043 6.85002 45.5565 6.61562 45.461C6.38122 45.3654 6.16828 45.224 5.98929 45.045C5.81029 44.866 5.66886 44.653 5.5733 44.4186C5.47773 44.1842 5.42995 43.9331 5.43276 43.68V4.32C5.43276 3.2415 6.27726 2.3985 7.35426 2.3985H41.7898C42.8683 2.3985 43.7113 3.243 43.7113 4.32V43.68ZM13.8298 40.7955L19.2283 36L13.8298 31.2045V40.7955ZM33.2758 21.36C32.3143 20.3985 30.5173 19.2045 27.5173 19.2045C24.2758 19.2045 20.9158 20.04 18.5173 20.883V7.2045H13.7113V27.96L17.0713 26.3985C17.0713 26.3985 22.5958 23.883 27.3913 23.883C29.7898 23.883 30.3913 25.2045 30.3913 26.3985V40.797H35.1958V26.3985C35.3143 26.04 35.3143 23.3985 33.2758 21.36V21.36ZM26.9158 15H31.7113C33.8668 12.4755 34.9528 9.96 35.3128 7.2045H30.5173C30.0313 9.96 28.8298 12.477 26.9158 15Z" fill="#F1F5FD"/>
</g>
<defs>
<clipPath id="clip0_4_1353">
<rect width="48" height="48" fill="white" transform="translate(0.571289)"/>
</clipPath>
</defs>
</svg>
