<svg width="48" height="48" viewBox="0 0 48 48" fill="none" xmlns="http://www.w3.org/2000/svg">
<g clip-path="url(#clip0_4_1283)">
<path d="M24 47.912C23.316 47.912 22.68 47.734 22.086 47.426L16.028 43.95C15.118 43.466 15.574 43.29 15.848 43.202C17.076 42.806 17.304 42.718 18.58 42.012C18.716 41.924 18.9 41.968 19.036 42.056L23.682 44.742C23.862 44.83 24.092 44.83 24.228 44.742L42.402 34.574C42.582 34.486 42.674 34.31 42.674 34.09V13.798C42.674 13.578 42.584 13.402 42.402 13.314L24.228 3.192C24.046 3.104 23.818 3.104 23.682 3.192L5.508 13.314C5.326 13.402 5.234 13.622 5.234 13.798V34.09C5.234 34.266 5.326 34.486 5.508 34.574L10.472 37.348C13.16 38.668 14.844 37.128 14.844 35.588V15.56C14.844 15.296 15.072 15.032 15.392 15.032H17.714C17.988 15.032 18.26 15.252 18.26 15.56V35.586C18.26 39.064 16.302 41.088 12.886 41.088C11.838 41.088 11.018 41.088 8.696 39.988L3.914 37.348C3.33777 37.0311 2.85657 36.5662 2.52009 36.0012C2.18362 35.4362 2.00408 34.7916 2 34.134V13.842C2 12.522 2.728 11.29 3.914 10.63L22.088 0.460003C22.6797 0.156576 23.3351 -0.00167847 24 -0.00167847C24.6649 -0.00167847 25.3203 0.156576 25.912 0.460003L44.088 10.628C45.272 11.288 46 12.52 46 13.84V34.132C46 35.452 45.272 36.684 44.088 37.346L25.912 47.512C25.3085 47.7736 24.6577 47.9084 24 47.908V47.912ZM29.602 33.958C21.632 33.958 19.992 30.438 19.992 27.444C19.992 27.18 20.22 26.916 20.538 26.916H22.906C23.18 26.916 23.406 27.092 23.406 27.356C23.772 29.688 24.82 30.832 29.648 30.832C33.474 30.832 35.114 29.996 35.114 28.016C35.114 26.872 34.658 26.036 28.692 25.464C23.726 24.978 20.63 23.924 20.63 20.094C20.63 16.528 23.726 14.414 28.92 14.414C34.75 14.414 37.62 16.352 37.984 20.578C37.9799 20.7211 37.9317 20.8594 37.846 20.974C37.756 21.062 37.62 21.15 37.482 21.15H35.114C34.999 21.1472 34.888 21.1071 34.7978 21.0356C34.7076 20.9642 34.6431 20.8653 34.614 20.754C34.066 18.334 32.654 17.54 28.92 17.54C24.728 17.54 24.228 18.948 24.228 20.004C24.228 21.282 24.82 21.678 30.468 22.382C36.07 23.086 38.712 24.098 38.712 27.882C38.666 31.758 35.388 33.958 29.602 33.958V33.958Z" fill="#F1F5FD"/>
</g>
<defs>
<clipPath id="clip0_4_1283">
<rect width="48" height="48" fill="white"/>
</clipPath>
</defs>
</svg>
