<svg xmlns="http://www.w3.org/2000/svg" xmlns:xlink="http://www.w3.org/1999/xlink" width="48px" height="48px" viewBox="0 0 48 48" version="1.1">
<g id="surface1">
<path style=" stroke:none;fill-rule:nonzero;fill:rgb(100%,100%,100%);fill-opacity:1;" d="M 44.199219 2 L 23 2 C 23 7.261719 27.238281 11.546875 32.5 11.601562 L 36.398438 11.601562 L 36.398438 15.300781 C 36.398438 20.601562 40.699219 24.898438 46 24.898438 L 46 3.800781 C 46 2.804688 45.195312 2 44.199219 2 Z M 44.199219 2 "/>
<path style=" stroke:none;fill-rule:nonzero;fill:rgb(100%,100%,100%);fill-opacity:1;" d="M 33.699219 12.601562 L 12.5 12.601562 C 12.554688 17.824219 16.777344 22.046875 22 22.101562 L 26 22.101562 L 26 25.898438 C 25.972656 28.429688 26.964844 30.859375 28.753906 32.648438 C 30.539062 34.433594 32.972656 35.425781 35.5 35.398438 L 35.5 14.398438 C 35.5 13.40625 34.695312 12.601562 33.699219 12.601562 Z M 33.699219 12.601562 "/>
<path style=" stroke:none;fill-rule:nonzero;fill:rgb(100%,100%,100%);fill-opacity:1;" d="M 23.199219 23.101562 L 2 23.101562 C 2 28.402344 6.296875 32.699219 11.601562 32.699219 L 15.5 32.699219 L 15.5 36.398438 C 15.5 41.664062 19.738281 45.945312 25 46 L 25 24.898438 C 25 23.90625 24.195312 23.101562 23.199219 23.101562 Z M 23.199219 23.101562 "/>
</g>
</svg>