<svg xmlns="http://www.w3.org/2000/svg" xmlns:xlink="http://www.w3.org/1999/xlink" width="48px" height="48px" viewBox="0 0 48 48" version="1.1">
<g id="surface1">
<path style="fill-rule:nonzero;fill:rgb(100%,100%,100%);fill-opacity:1;stroke-width:1;stroke-linecap:butt;stroke-linejoin:miter;stroke:rgb(100%,100%,100%);stroke-opacity:1;stroke-miterlimit:4;" d="M 21.786458 0.317708 L 21.625 3.932292 C 21.619792 4.135417 21.854167 4.260417 22.015625 4.135417 L 23.427083 3.067708 L 24.625 4 C 24.78125 4.104167 24.989583 4 25 3.8125 L 24.864583 0.135417 L 26.640625 0 C 27.5625 -0.0625 28.348958 0.671875 28.348958 1.598958 L 28.348958 30.401042 C 28.348958 31.317708 27.583333 32.046875 26.666667 32 L 5.197917 31.041667 C 4.364583 31.005208 3.692708 30.333333 3.666667 29.494792 L 2.666667 3.09375 C 2.614583 2.208333 3.286458 1.447917 4.171875 1.401042 L 21.770833 0.291667 Z M 17.692708 12.401042 C 17.692708 13.026042 21.90625 12.71875 22.479167 12.291667 C 22.479167 8.026042 20.1875 5.770833 16 5.770833 C 11.802083 5.770833 9.46875 8.067708 9.46875 11.494792 C 9.46875 17.427083 17.46875 17.53125 17.46875 20.770833 C 17.46875 21.708333 17.041667 22.239583 16.067708 22.239583 C 14.786458 22.239583 14.265625 21.588542 14.333333 19.359375 C 14.333333 18.880208 9.46875 18.71875 9.307292 19.359375 C 8.947917 24.734375 12.28125 26.291667 16.104167 26.291667 C 19.828125 26.291667 22.734375 24.307292 22.734375 20.71875 C 22.734375 14.359375 14.598958 14.53125 14.598958 11.385417 C 14.598958 10.09375 15.565104 9.921875 16.104167 9.921875 C 16.708333 9.921875 17.770833 10.015625 17.692708 12.411458 Z M 17.692708 12.401042 " transform="matrix(1.5,0,0,1.5,0,0)"/>
</g>
</svg>