<svg width="48" height="48" viewBox="0 0 48 48" fill="none" xmlns="http://www.w3.org/2000/svg">
<g clip-path="url(#clip0_4_1356)">
<path d="M0.456152 16.74C0.456152 16.74 -0.711848 15.886 0.690152 14.75L3.96015 11.794C3.96015 11.794 4.89415 10.8 5.88415 11.666L36.0462 34.75V45.818C36.0462 45.818 36.0322 47.558 33.8262 47.366L0.454152 16.738L0.456152 16.74Z" fill="#F1F5FD"/>
<path d="M8.23214 23.874L0.456142 31.018C0.456142 31.018 -0.343859 31.618 0.456142 32.692L4.06614 36.012C4.06614 36.012 4.92414 36.942 6.19014 35.882L14.4321 29.566L8.23214 23.874ZM21.8801 23.932L36.1401 12.928L36.0461 1.918C36.0461 1.918 35.4361 -0.486 33.4061 0.766L14.4321 18.22L21.8801 23.932V23.932Z" fill="#F1F5FD"/>
<path d="M33.8238 47.38C34.6518 48.236 35.6558 47.956 35.6558 47.956L46.7678 42.422C48.1898 41.442 47.9898 40.226 47.9898 40.226V7.176C47.9898 5.724 46.5198 5.222 46.5198 5.222L36.8878 0.527998C34.7838 -0.786002 33.4058 0.765998 33.4058 0.765998C33.4058 0.765998 35.1778 -0.524002 36.0458 1.918V45.618C36.0458 45.918 35.9818 46.212 35.8558 46.478C35.6018 46.996 35.0518 47.478 33.7318 47.278L33.8238 47.38V47.38Z" fill="#F1F5FD"/>
</g>
<defs>
<clipPath id="clip0_4_1356">
<rect width="48" height="48" fill="white"/>
</clipPath>
</defs>
</svg>
