<svg width="48" height="48" viewBox="0 0 48 48" fill="none" xmlns="http://www.w3.org/2000/svg">
<g clip-path="url(#clip0_4_1328)">
<path fill-rule="evenodd" clip-rule="evenodd" d="M48 48H0V0H48V48ZM38.1009 20.3451V16.6223C37.4878 16.3493 33.9768 15.3449 31.203 16.4033C27.2074 17.9279 27.3509 22.5207 28.8671 24.3232C30.8317 26.6587 35.7186 27.5295 34.9189 29.8219C34.5048 31.0089 32.5716 31.2156 30.8672 30.817C29.28 30.446 27.9 29.5058 27.9 29.5058V33.4476C27.9 33.4476 29.2641 34.2081 30.9382 34.389C33.0845 34.6208 35.7747 34.183 37.1225 32.9851C39.5215 30.8526 39.89 26.1285 35.3436 23.9348C31.5603 22.1095 31.6225 21.5886 31.6491 20.6523C31.6847 19.3983 34.3176 18.6263 38.1009 20.3451V20.3451ZM17.6991 9.89766C20.8469 10.0072 25.473 11.4579 25.473 17.6442C25.473 23.8305 19.8129 25.8605 14.6483 25.4182V34.1775H10.8009V9.97969C10.8009 9.97969 14.551 9.78816 17.699 9.89766H17.6991ZM18.6982 21.5859C20.3572 20.9806 21.4355 19.6793 21.4355 17.6578C21.4355 15.5146 20.3381 14.0632 18.6598 13.6533C16.8424 13.2092 14.6483 13.4709 14.6483 13.4709V21.9126C14.6483 21.9126 17.6854 21.9555 18.6982 21.5859V21.5859Z" fill="#F1F5FD"/>
</g>
<defs>
<clipPath id="clip0_4_1328">
<rect width="48" height="48" fill="white"/>
</clipPath>
</defs>
</svg>
