<svg width="49" height="48" viewBox="0 0 49 48" fill="none" xmlns="http://www.w3.org/2000/svg">
<g clip-path="url(#clip0_4_1305)">
<path d="M18.2516 11.2954V16.814L6.55531 22.1675L18.2516 27.7125V33.1205L0.5 24.699V19.7731L18.2516 11.2953V11.2954ZM30.3308 16.2913C30.3308 14.8813 29.0342 13.9953 28.0027 14.7003C26.9712 15.4053 26.9712 17.1773 28.0027 17.8824C29.0343 18.5874 30.3308 17.7013 30.3308 16.2913V16.2913ZM26.1008 20.6236C22.6028 18.706 22.6028 13.886 26.1008 11.9683C29.5989 10.0508 33.9952 12.4608 33.9952 16.296C33.9952 20.1312 29.5989 22.5413 26.1009 20.6236H26.1008ZM44.8356 31.8667C44.8356 30.4567 43.539 29.5707 42.5075 30.2757C41.476 30.9807 41.476 32.7528 42.5075 33.4578C43.5391 34.1628 44.8356 33.2768 44.8356 31.8668V31.8667ZM40.6056 36.199C37.1076 34.2815 37.1076 29.4614 40.6056 27.5437C44.1036 25.6261 48.5 28.0362 48.5 31.8714C48.5 35.7067 44.1037 38.1167 40.6057 36.199H40.6056ZM29.8568 36.8721L48.0827 11.1279H41.855L23.3253 36.8721H29.8567H29.8568Z" fill="#F1F5FD"/>
</g>
<defs>
<clipPath id="clip0_4_1305">
<rect width="48" height="48" fill="white" transform="translate(0.5)"/>
</clipPath>
</defs>
</svg>
