<svg width="49" height="48" viewBox="0 0 49 48" fill="none" xmlns="http://www.w3.org/2000/svg">
<path fill-rule="evenodd" clip-rule="evenodd" d="M17.6871 0C12.7931 0 8.85706 4.106 8.85706 9.136C8.85706 12.194 10.3131 14.91 12.5511 16.568C11.3976 17.4322 10.4627 18.5546 9.82119 19.8452C9.1797 21.1358 8.8495 22.5588 8.85706 24C8.85706 27.06 10.3131 29.774 12.5511 31.432C11.3976 32.2962 10.4627 33.4186 9.82119 34.7092C9.1797 35.9998 8.8495 37.4228 8.85706 38.864C8.85706 43.894 12.7931 48 17.6871 48C22.5791 48 26.5171 43.894 26.5171 38.864V31.14C28.0637 32.4296 30.0133 33.1365 32.0271 33.138C36.9211 33.136 40.8571 29.03 40.8571 24C40.8651 22.5587 40.5351 21.1356 39.8936 19.8449C39.252 18.5542 38.3169 17.4318 37.1631 16.568C38.3165 15.7038 39.2514 14.5814 39.8929 13.2908C40.5344 12.0002 40.8646 10.5772 40.8571 9.136C40.8571 4.106 36.9211 0 32.0271 0H17.6871V0ZM12.1751 9.136C12.1751 5.954 14.6591 3.406 17.6871 3.406H23.1971V14.866H17.6871C14.6591 14.866 12.1751 12.316 12.1751 9.136V9.136ZM32.0271 14.864H26.5171V3.404H32.0271C35.0571 3.404 37.5391 5.954 37.5391 9.136C37.5391 12.316 35.0571 14.864 32.0271 14.864ZM12.1771 24C12.1771 20.82 14.6611 18.27 17.6891 18.27H23.1991V29.73H17.6871C14.6571 29.73 12.1751 27.18 12.1751 24H12.1771ZM26.5171 24C26.5171 20.82 29.0011 18.27 32.0291 18.27C35.0591 18.27 37.5411 20.818 37.5411 24C37.5411 27.18 35.0591 29.73 32.0291 29.73C29.0011 29.73 26.5191 27.182 26.5191 24H26.5171ZM12.1771 38.864C12.1771 35.684 14.6611 33.136 17.6891 33.136H23.1991V38.864C23.1991 42.046 20.7191 44.594 17.6891 44.594C14.6611 44.594 12.1771 42.046 12.1771 38.864Z" fill="#F1F5FD"/>
</svg>
