<svg width="49" height="48" viewBox="0 0 49 48" fill="none" xmlns="http://www.w3.org/2000/svg">
<g clip-path="url(#clip0_4_1347)">
<path fill-rule="evenodd" clip-rule="evenodd" d="M24.1431 0C10.8831 0 0.143066 10.74 0.143066 24C0.143066 34.62 7.01307 43.59 16.5531 46.77C17.7531 46.98 18.2031 46.26 18.2031 45.63C18.2031 45.06 18.1731 43.17 18.1731 41.16C12.1431 42.27 10.5831 39.69 10.1031 38.34C9.83307 37.65 8.66307 35.52 7.64307 34.95C6.80307 34.5 5.60307 33.39 7.61307 33.36C9.50307 33.33 10.8531 35.1 11.3031 35.82C13.4631 39.45 16.9131 38.43 18.2931 37.8C18.5031 36.24 19.1331 35.19 19.8231 34.59C14.4831 33.99 8.90307 31.92 8.90307 22.74C8.90307 20.13 9.83307 17.97 11.3631 16.29C11.1231 15.69 10.2831 13.23 11.6031 9.93C11.6031 9.93 13.6131 9.3 18.2031 12.39C20.1231 11.85 22.1631 11.58 24.2031 11.58C26.2431 11.58 28.2831 11.85 30.2031 12.39C34.7931 9.27 36.8031 9.93 36.8031 9.93C38.1231 13.23 37.2831 15.69 37.0431 16.29C38.5731 17.97 39.5031 20.1 39.5031 22.74C39.5031 31.95 33.8931 33.99 28.5531 34.59C29.4231 35.34 30.1731 36.78 30.1731 39.03C30.1731 42.24 30.1431 44.82 30.1431 45.63C30.1431 46.26 30.5931 47.01 31.7931 46.77C36.5574 45.1614 40.6974 42.0994 43.6304 38.0147C46.5634 33.9301 48.1416 29.0286 48.1431 24C48.1431 10.74 37.4031 0 24.1431 0Z" fill="#F1F5FD"/>
</g>
<defs>
<clipPath id="clip0_4_1347">
<rect width="48" height="48" fill="white" transform="translate(0.143066)"/>
</clipPath>
</defs>
</svg>
