<svg width="49" height="48" viewBox="0 0 49 48" fill="none" xmlns="http://www.w3.org/2000/svg">
<g clip-path="url(#clip0_4_1257)">
<path d="M10.6602 0H12.8242V2.138H14.8042V0H16.9682V6.472H14.8042V4.306H12.8242V6.472H10.6622V0H10.6602ZM19.8122 2.146H17.9082V0H23.8822V2.146H21.9762V6.472H19.8122V2.146V2.146ZM24.8302 0H27.0862L28.4742 2.274L29.8602 0H32.1162V6.472H29.9622V3.264L28.4742 5.566H28.4362L26.9462 3.266V6.472H24.8302V0V0ZM33.1922 0H35.3582V4.334H38.3982V6.474H33.1922V0V0Z" fill="#F1F5FD"/>
<path fill-rule="evenodd" clip-rule="evenodd" d="M10.592 44.144L6.5 9.434H42.5L38.406 44.14L24.48 48L10.592 44.144ZM18.866 25.144L18.478 20.784H34.768L35.148 16.528H13.828L14.976 29.402H29.73L29.236 34.922L24.488 36.206H24.484L19.744 34.926L19.44 31.532H15.164L15.76 38.216L24.48 40.636L33.214 38.216L34.278 26.288L34.382 25.146H18.866V25.144Z" fill="#F1F5FD"/>
</g>
<defs>
<clipPath id="clip0_4_1257">
<rect width="48" height="48" fill="white" transform="translate(0.5)"/>
</clipPath>
</defs>
</svg>
