<svg width="49" height="48" viewBox="0 0 49 48" fill="none" xmlns="http://www.w3.org/2000/svg">
<path d="M37.7856 6H10.7856C9.59217 6 8.44758 6.47411 7.60366 7.31802C6.75975 8.16193 6.28564 9.30653 6.28564 10.5V37.5C6.28564 38.6935 6.75975 39.8381 7.60366 40.682C8.44758 41.5259 9.59217 42 10.7856 42H37.7856C38.9791 42 40.1237 41.5259 40.9676 40.682C41.8115 39.8381 42.2856 38.6935 42.2856 37.5V10.5C42.2856 9.30653 41.8115 8.16193 40.9676 7.31802C40.1237 6.47411 38.9791 6 37.7856 6V6ZM21.9456 33.27C21.9456 33.8429 21.7181 34.3923 21.313 34.7974C20.9079 35.2024 20.3585 35.43 19.7856 35.43H13.1256C12.5528 35.43 12.0034 35.2024 11.5983 34.7974C11.1932 34.3923 10.9656 33.8429 10.9656 33.27V12.84C10.9656 11.646 11.9316 10.68 13.1256 10.68H19.7856C20.9776 10.68 21.9456 11.646 21.9456 12.84V33.27ZM37.6056 24.27C37.6056 24.8429 37.3781 25.3923 36.973 25.7973C36.5679 26.2024 36.0185 26.43 35.4456 26.43H28.7856C28.2128 26.43 27.6634 26.2024 27.2583 25.7973C26.8532 25.3923 26.6256 24.8429 26.6256 24.27V12.84C26.6256 11.646 27.5936 10.68 28.7856 10.68H35.4456C36.6396 10.68 37.6056 11.646 37.6056 12.84V24.27V24.27Z" fill="#F1F5FD"/>
</svg>
